Coordinates
version=1
nRows=6
nColumns=63
inDegrees=yes

Units are S.I. units (second, meters, Newtons, ...)
If the header above contains a line with 'inDegrees', this indicates whether rotational values are in degrees (yes) or radians (no).

endheader
time	pelvis_tilt	pelvis_list	pelvis_rotation	pelvis_tx	pelvis_ty	pelvis_tz	hip_flexion_r	hip_adduction_r	hip_rotation_r	knee_angle_r	knee_angle_r_beta	ankle_angle_r	subtalar_angle_r	mtp_angle_r	hip_flexion_l	hip_adduction_l	hip_rotation_l	knee_angle_l	knee_angle_l_beta	ankle_angle_l	subtalar_angle_l	mtp_angle_l	L5_S1_Flex_Ext	L5_S1_Lat_Bending	L5_S1_axial_rotation	L4_L5_Flex_Ext	L4_L5_Lat_Bending	L4_L5_axial_rotation	L3_L4_Flex_Ext	L3_L4_Lat_Bending	L3_L4_axial_rotation	L2_L3_Flex_Ext	L2_L3_Lat_Bending	L2_L3_axial_rotation	L1_L2_Flex_Ext	L1_L2_Lat_Bending	L1_L2_axial_rotation	L1_T12_Flex_Ext	L1_T12_Lat_Bending	L1_T12_axial_rotation	Abs_r3	Abs_r2	Abs_r1	Abs_t1	Abs_t2	neck_flexion	neck_bending	neck_rotation	arm_flex_r	arm_add_r	arm_rot_r	elbow_flex_r	pro_sup_r	wrist_flex_r	wrist_dev_r	arm_flex_l	arm_add_l	arm_rot_l	elbow_flex_l	pro_sup_l	wrist_flex_l	wrist_dev_l
2.796610	-5.527001	-3.372765	76.947786	0.248160	0.393626	0.902517	-2.925164	-1.757775	6.311636	1.613240	0.028156	18.599071	-6.398878	0.000000	2.613206	0.315149	-5.658466	11.967303	0.208869	23.408162	12.436815	0.000000	-0.553171	-0.130265	-2.197512	-1.027294	-0.173252	-2.334857	-0.908805	-0.316726	-2.334857	-0.632219	-0.316726	-1.922823	-0.513675	-0.265636	-1.785479	-0.316082	-0.201780	-1.648134	-3.951247	-1.473582	-12.221904	0.000000	0.000000	12.667899	7.670831	1.939796	10.985784	-15.458745	66.375770	27.351757	88.775203	-16.854898	-1.937016	-0.485045	-17.073181	69.521994	19.252309	71.548177	-14.459007	3.104128
2.813559	-5.654085	-3.471137	76.596460	0.248400	0.393368	0.902750	-2.696966	-1.899344	6.356753	1.735659	0.030293	18.802384	-5.994871	0.000000	2.698163	0.445341	-5.799661	11.881259	0.207367	23.371883	12.042867	0.000000	-0.551788	-0.130745	-2.111568	-1.024726	-0.173891	-2.243541	-0.906533	-0.317893	-2.243541	-0.630639	-0.317893	-1.847622	-0.512391	-0.266615	-1.715649	-0.315292	-0.202524	-1.583676	-3.941369	-1.479014	-11.743905	0.000000	0.000000	12.787057	7.667494	1.962414	10.662841	-15.512758	64.974965	27.543436	88.781806	-16.105959	-1.404374	-0.420766	-17.097770	68.991761	19.401101	72.984580	-14.319120	3.370096
2.830508	-5.787395	-3.542299	76.259044	0.248707	0.393089	0.902854	-2.510205	-2.052114	6.349788	1.855892	0.032391	19.047449	-5.500288	0.000000	2.736219	0.596369	-5.796958	11.764300	0.205326	23.348898	11.504197	0.000000	-0.549131	-0.133651	-2.037625	-1.019792	-0.177756	-2.164976	-0.902168	-0.324960	-2.164976	-0.627602	-0.324960	-1.782922	-0.509923	-0.272542	-1.655570	-0.313774	-0.207026	-1.528219	-3.922390	-1.511890	-11.332657	0.000000	0.000000	12.876920	7.607111	1.980930	10.369707	-15.492125	63.823518	27.613058	88.745554	-15.461344	-0.912137	-0.525714	-17.125481	67.883007	19.665950	73.643231	-13.953443	3.570972
2.847458	-5.916666	-3.585613	75.935804	0.249078	0.392794	0.902838	-2.365926	-2.201419	6.310944	1.972008	0.034418	19.335569	-4.952725	0.000000	2.732197	0.732870	-5.907824	11.636041	0.203087	23.379390	11.185235	0.000000	-0.545699	-0.137824	-1.968285	-1.013417	-0.183306	-2.091303	-0.896528	-0.335106	-2.091303	-0.623679	-0.335106	-1.722249	-0.506736	-0.281051	-1.599231	-0.311812	-0.213490	-1.476214	-3.897871	-1.559096	-10.947010	0.000000	0.000000	12.951611	7.509284	1.994642	9.990245	-15.411238	62.358471	27.692242	88.709635	-14.712097	-0.287489	-0.725665	-17.150019	66.525054	19.986955	73.460612	-13.450665	3.645462
2.864407	-6.024513	-3.586486	75.652199	0.249473	0.392516	0.902673	-2.285352	-2.337110	6.003270	2.088078	0.036444	19.741680	-4.029482	0.000000	2.661684	0.858657	-5.944906	11.481753	0.200394	23.442458	10.869838	0.000000	-0.543841	-0.141969	-1.911775	-1.009968	-0.188819	-2.031260	-0.893477	-0.345183	-2.031260	-0.621556	-0.345183	-1.672803	-0.505011	-0.289503	-1.553317	-0.310751	-0.219910	-1.433831	-3.884604	-1.605980	-10.632716	0.000000	0.000000	13.000622	7.350898	2.002423	9.567850	-15.261950	60.759210	27.775091	88.661840	-13.898839	0.486802	-1.053602	-17.163401	64.784498	20.383951	72.419418	-12.816759	3.663762
2.881356	-6.112012	-3.564775	75.377365	0.249926	0.392233	0.902377	-2.244385	-2.452604	5.821036	2.198516	0.038371	20.121364	-3.293389	0.000000	2.548257	0.959668	-6.058626	11.317594	0.197529	23.547901	10.707970	0.000000	-0.540397	-0.145737	-1.856235	-1.003571	-0.193830	-1.972250	-0.887818	-0.354345	-1.972250	-0.617620	-0.354345	-1.624206	-0.501813	-0.297187	-1.508191	-0.308783	-0.225747	-1.392176	-3.860002	-1.648606	-10.323822	0.000000	0.000000	13.035580	7.162654	1.994920	9.052251	-15.074229	58.843481	27.875202	88.602103	-13.030068	1.304385	-1.424225	-17.168913	63.070251	20.781535	70.579858	-12.073396	3.543308
